<svg width="55" height="55" viewBox="0 0 55 55" fill="none" xmlns="http://www.w3.org/2000/svg">
<path d="M26.5833 48.1174L27.6222 55L28.4778 48.1174L30.25 40.3821L31.35 37.093L32.7556 34.5958L35.3833 32.3422L40.7611 30.1495L46.5056 28.7486L55 27.5305L46.5056 26.2514L40.7611 24.8505L35.3833 22.7187L32.7556 20.2824L31.35 17.4806L30.25 14.1307L28.4778 6.39535L27.6222 0L26.5833 6.39535L24.8111 14.1307L23.7722 17.4806L22.4278 20.2824L20.0444 22.7187L14.3611 24.8505L8.37222 26.2514L0 27.5305L8.37222 28.7486L14.3611 30.1495L20.0444 32.3422L22.4278 34.5958L23.7722 37.093L24.8111 40.3821L26.5833 48.1174Z" fill="white"/>
</svg>
