<svg width="31" height="42" viewBox="0 0 31 42" fill="none" xmlns="http://www.w3.org/2000/svg">
<path d="M23.8604 0C26.1463 0 27.9997 1.71298 28 3.82617C28 5.93958 26.1465 7.65332 23.8604 7.65332C23.4927 7.6533 23.1363 7.60858 22.7969 7.52539L13.0127 18.6943L25.8057 34.4209C26.069 34.3723 26.3413 34.3467 26.6201 34.3467C28.906 34.3468 30.7585 36.0597 30.7588 38.1729C30.7588 40.2862 28.9061 41.9999 26.6201 42C24.3341 41.9999 22.4805 40.2862 22.4805 38.1729C22.4806 37.494 22.6723 36.8565 23.0078 36.3037L10.7109 21.3223L7 25.5596V38.376C6.9998 40.3088 5.43285 41.876 3.5 41.876C1.56725 41.8759 0.000198396 40.3087 0 38.376V3.5C0 1.5671 1.56712 0.000116638 3.5 0C5.43298 0 7 1.56702 7 3.5V20.5557L20.1562 5.53516C19.8781 5.02083 19.7207 4.44029 19.7207 3.82617C19.721 1.71304 21.5745 0.000100524 23.8604 0ZM26.6201 35.8398C25.2264 35.84 24.096 36.8845 24.0957 38.1729C24.0957 39.4614 25.2263 40.5067 26.6201 40.5068C28.014 40.5067 29.1435 39.4614 29.1436 38.1729C29.1433 36.8845 28.0138 35.84 26.6201 35.8398Z" fill="black"/>
</svg>
