<svg width="293" height="400" viewBox="0 0 293 400" fill="none" xmlns="http://www.w3.org/2000/svg">
<path d="M227.241 0C249.014 0.00010673 266.664 16.3167 266.664 36.4443C266.664 56.572 249.014 72.8886 227.241 72.8887C223.741 72.8887 220.349 72.4641 217.118 71.6729L123.938 178.049L245.763 327.818C248.272 327.355 250.866 327.111 253.522 327.111C275.295 327.111 292.945 343.428 292.945 363.556C292.945 383.683 275.295 400 253.522 400C231.75 400 214.1 383.683 214.1 363.556C214.1 357.089 215.923 351.017 219.118 345.752L102.015 203.076L66.666 243.43V365.482C66.6658 383.892 51.7422 398.815 33.333 398.815C14.9239 398.815 0.000242364 383.892 0 365.482V33.333C0 14.9237 14.9237 0 33.333 0C51.7423 8.311e-06 66.666 14.9237 66.666 33.333V195.766L191.964 52.7246C189.313 47.8244 187.818 42.2961 187.818 36.4443C187.818 16.3166 205.469 0 227.241 0ZM253.522 341.333C240.247 341.333 229.484 351.283 229.484 363.556C229.484 375.828 240.247 385.778 253.522 385.778C266.798 385.778 277.56 375.829 277.561 363.556C277.561 351.283 266.798 341.333 253.522 341.333Z" fill="white"/>
</svg>
